<mxfile host="Electron" agent="Mozilla/5.0 (Windows NT 10.0; Win64; x64) AppleWebKit/537.36 (KHTML, like Gecko) draw.io/26.2.15 Chrome/134.0.6998.205 Electron/35.2.1 Safari/537.36" version="26.2.15">
  <diagram name="Page-1" id="oSlewENaS0oFDHan6Odl">
    <mxGraphModel dx="1255" dy="933" grid="1" gridSize="10" guides="1" tooltips="1" connect="1" arrows="1" fold="1" page="1" pageScale="1" pageWidth="850" pageHeight="1100" math="0" shadow="0">
      <root>
        <mxCell id="0" />
        <mxCell id="1" parent="0" />
        <mxCell id="9P_XrsOtforrPiIeoxai-1" value="" style="swimlane;startSize=0;dashed=1;dashPattern=8 8;" parent="1" vertex="1">
          <mxGeometry x="120" y="260" width="290" height="280" as="geometry" />
        </mxCell>
        <mxCell id="9P_XrsOtforrPiIeoxai-18" style="edgeStyle=orthogonalEdgeStyle;rounded=0;orthogonalLoop=1;jettySize=auto;html=1;entryX=0;entryY=0.5;entryDx=0;entryDy=0;" parent="9P_XrsOtforrPiIeoxai-1" source="9P_XrsOtforrPiIeoxai-6" target="9P_XrsOtforrPiIeoxai-8" edge="1">
          <mxGeometry relative="1" as="geometry" />
        </mxCell>
        <mxCell id="9P_XrsOtforrPiIeoxai-6" value="&lt;font style=&quot;font-size: 20px;&quot;&gt;A1&lt;/font&gt;" style="ellipse;whiteSpace=wrap;html=1;aspect=fixed;" parent="9P_XrsOtforrPiIeoxai-1" vertex="1">
          <mxGeometry x="30" y="40" width="80" height="80" as="geometry" />
        </mxCell>
        <mxCell id="9P_XrsOtforrPiIeoxai-19" style="edgeStyle=orthogonalEdgeStyle;rounded=0;orthogonalLoop=1;jettySize=auto;html=1;entryX=1;entryY=0.5;entryDx=0;entryDy=0;" parent="9P_XrsOtforrPiIeoxai-1" source="9P_XrsOtforrPiIeoxai-7" target="9P_XrsOtforrPiIeoxai-8" edge="1">
          <mxGeometry relative="1" as="geometry" />
        </mxCell>
        <mxCell id="9P_XrsOtforrPiIeoxai-7" value="&lt;font style=&quot;font-size: 20px;&quot;&gt;A2&lt;/font&gt;" style="ellipse;whiteSpace=wrap;html=1;aspect=fixed;" parent="9P_XrsOtforrPiIeoxai-1" vertex="1">
          <mxGeometry x="190" y="40" width="80" height="80" as="geometry" />
        </mxCell>
        <mxCell id="9P_XrsOtforrPiIeoxai-8" value="&lt;font style=&quot;font-size: 20px;&quot;&gt;A3&lt;/font&gt;" style="ellipse;whiteSpace=wrap;html=1;aspect=fixed;" parent="9P_XrsOtforrPiIeoxai-1" vertex="1">
          <mxGeometry x="110" y="170" width="80" height="80" as="geometry" />
        </mxCell>
        <mxCell id="9P_XrsOtforrPiIeoxai-3" value="" style="swimlane;startSize=0;dashed=1;dashPattern=8 8;" parent="1" vertex="1">
          <mxGeometry x="510" y="260" width="290" height="280" as="geometry" />
        </mxCell>
        <mxCell id="9P_XrsOtforrPiIeoxai-22" style="edgeStyle=orthogonalEdgeStyle;rounded=0;orthogonalLoop=1;jettySize=auto;html=1;entryX=0.5;entryY=0;entryDx=0;entryDy=0;" parent="9P_XrsOtforrPiIeoxai-3" source="9P_XrsOtforrPiIeoxai-9" target="9P_XrsOtforrPiIeoxai-20" edge="1">
          <mxGeometry relative="1" as="geometry" />
        </mxCell>
        <mxCell id="9P_XrsOtforrPiIeoxai-9" value="&lt;font style=&quot;font-size: 20px;&quot;&gt;A4&lt;/font&gt;" style="ellipse;whiteSpace=wrap;html=1;aspect=fixed;" parent="9P_XrsOtforrPiIeoxai-3" vertex="1">
          <mxGeometry x="30" y="30" width="80" height="80" as="geometry" />
        </mxCell>
        <mxCell id="9P_XrsOtforrPiIeoxai-23" style="edgeStyle=orthogonalEdgeStyle;rounded=0;orthogonalLoop=1;jettySize=auto;html=1;entryX=0;entryY=0.5;entryDx=0;entryDy=0;" parent="9P_XrsOtforrPiIeoxai-3" source="9P_XrsOtforrPiIeoxai-20" target="9P_XrsOtforrPiIeoxai-21" edge="1">
          <mxGeometry relative="1" as="geometry" />
        </mxCell>
        <mxCell id="9P_XrsOtforrPiIeoxai-20" value="&lt;font style=&quot;font-size: 20px;&quot;&gt;A5&lt;/font&gt;" style="ellipse;whiteSpace=wrap;html=1;aspect=fixed;" parent="9P_XrsOtforrPiIeoxai-3" vertex="1">
          <mxGeometry x="30" y="160" width="80" height="80" as="geometry" />
        </mxCell>
        <mxCell id="9P_XrsOtforrPiIeoxai-21" value="&lt;font style=&quot;font-size: 20px;&quot;&gt;A6&lt;/font&gt;" style="ellipse;whiteSpace=wrap;html=1;aspect=fixed;" parent="9P_XrsOtforrPiIeoxai-3" vertex="1">
          <mxGeometry x="180" y="100" width="80" height="80" as="geometry" />
        </mxCell>
        <mxCell id="9P_XrsOtforrPiIeoxai-4" value="" style="swimlane;startSize=0;dashed=1;dashPattern=8 8;" parent="1" vertex="1">
          <mxGeometry x="510" y="620" width="290" height="280" as="geometry" />
        </mxCell>
        <mxCell id="9P_XrsOtforrPiIeoxai-24" value="&lt;font style=&quot;font-size: 20px;&quot;&gt;A9&lt;/font&gt;" style="ellipse;whiteSpace=wrap;html=1;aspect=fixed;" parent="9P_XrsOtforrPiIeoxai-4" vertex="1">
          <mxGeometry x="40" y="110" width="80" height="80" as="geometry" />
        </mxCell>
        <mxCell id="9P_XrsOtforrPiIeoxai-27" style="edgeStyle=orthogonalEdgeStyle;rounded=0;orthogonalLoop=1;jettySize=auto;html=1;entryX=0.5;entryY=0;entryDx=0;entryDy=0;" parent="9P_XrsOtforrPiIeoxai-4" source="9P_XrsOtforrPiIeoxai-25" target="9P_XrsOtforrPiIeoxai-24" edge="1">
          <mxGeometry relative="1" as="geometry" />
        </mxCell>
        <mxCell id="9P_XrsOtforrPiIeoxai-28" style="edgeStyle=orthogonalEdgeStyle;rounded=0;orthogonalLoop=1;jettySize=auto;html=1;entryX=0.5;entryY=0;entryDx=0;entryDy=0;" parent="9P_XrsOtforrPiIeoxai-4" source="9P_XrsOtforrPiIeoxai-25" target="9P_XrsOtforrPiIeoxai-26" edge="1">
          <mxGeometry relative="1" as="geometry" />
        </mxCell>
        <mxCell id="9P_XrsOtforrPiIeoxai-25" value="&lt;font style=&quot;font-size: 20px;&quot;&gt;A7&lt;/font&gt;" style="ellipse;whiteSpace=wrap;html=1;aspect=fixed;" parent="9P_XrsOtforrPiIeoxai-4" vertex="1">
          <mxGeometry x="180" y="40" width="80" height="80" as="geometry" />
        </mxCell>
        <mxCell id="9P_XrsOtforrPiIeoxai-26" value="&lt;font style=&quot;font-size: 20px;&quot;&gt;A8&lt;/font&gt;" style="ellipse;whiteSpace=wrap;html=1;aspect=fixed;" parent="9P_XrsOtforrPiIeoxai-4" vertex="1">
          <mxGeometry x="180" y="170" width="80" height="80" as="geometry" />
        </mxCell>
        <mxCell id="9P_XrsOtforrPiIeoxai-5" value="" style="swimlane;startSize=0;dashed=1;dashPattern=8 8;" parent="1" vertex="1">
          <mxGeometry x="120" y="620" width="290" height="280" as="geometry" />
        </mxCell>
        <mxCell id="9P_XrsOtforrPiIeoxai-37" style="edgeStyle=orthogonalEdgeStyle;rounded=0;orthogonalLoop=1;jettySize=auto;html=1;entryX=0.5;entryY=0;entryDx=0;entryDy=0;" parent="9P_XrsOtforrPiIeoxai-5" source="9P_XrsOtforrPiIeoxai-31" target="9P_XrsOtforrPiIeoxai-32" edge="1">
          <mxGeometry relative="1" as="geometry">
            <Array as="points">
              <mxPoint x="70" y="70" />
            </Array>
          </mxGeometry>
        </mxCell>
        <mxCell id="9P_XrsOtforrPiIeoxai-31" value="&lt;font style=&quot;font-size: 20px;&quot;&gt;A11&lt;/font&gt;" style="ellipse;whiteSpace=wrap;html=1;aspect=fixed;" parent="9P_XrsOtforrPiIeoxai-5" vertex="1">
          <mxGeometry x="110" y="30" width="80" height="80" as="geometry" />
        </mxCell>
        <mxCell id="9P_XrsOtforrPiIeoxai-32" value="&lt;font style=&quot;font-size: 20px;&quot;&gt;A12&lt;/font&gt;" style="ellipse;whiteSpace=wrap;html=1;aspect=fixed;" parent="9P_XrsOtforrPiIeoxai-5" vertex="1">
          <mxGeometry x="30" y="170" width="80" height="80" as="geometry" />
        </mxCell>
        <mxCell id="9P_XrsOtforrPiIeoxai-36" style="edgeStyle=orthogonalEdgeStyle;rounded=0;orthogonalLoop=1;jettySize=auto;html=1;entryX=1;entryY=0.5;entryDx=0;entryDy=0;" parent="9P_XrsOtforrPiIeoxai-5" source="9P_XrsOtforrPiIeoxai-33" target="9P_XrsOtforrPiIeoxai-31" edge="1">
          <mxGeometry relative="1" as="geometry" />
        </mxCell>
        <mxCell id="9P_XrsOtforrPiIeoxai-33" value="&lt;font style=&quot;font-size: 20px;&quot;&gt;A10&lt;/font&gt;" style="ellipse;whiteSpace=wrap;html=1;aspect=fixed;" parent="9P_XrsOtforrPiIeoxai-5" vertex="1">
          <mxGeometry x="190" y="170" width="80" height="80" as="geometry" />
        </mxCell>
        <mxCell id="9P_XrsOtforrPiIeoxai-30" style="edgeStyle=orthogonalEdgeStyle;rounded=0;orthogonalLoop=1;jettySize=auto;html=1;entryX=0.5;entryY=0;entryDx=0;entryDy=0;strokeWidth=2;" parent="1" source="9P_XrsOtforrPiIeoxai-21" target="9P_XrsOtforrPiIeoxai-25" edge="1">
          <mxGeometry relative="1" as="geometry" />
        </mxCell>
        <mxCell id="9P_XrsOtforrPiIeoxai-34" style="edgeStyle=orthogonalEdgeStyle;rounded=0;orthogonalLoop=1;jettySize=auto;html=1;entryX=1;entryY=0.5;entryDx=0;entryDy=0;strokeWidth=2;" parent="1" source="9P_XrsOtforrPiIeoxai-26" target="9P_XrsOtforrPiIeoxai-33" edge="1">
          <mxGeometry relative="1" as="geometry" />
        </mxCell>
        <mxCell id="9P_XrsOtforrPiIeoxai-38" style="edgeStyle=orthogonalEdgeStyle;rounded=0;orthogonalLoop=1;jettySize=auto;html=1;entryX=0;entryY=0.5;entryDx=0;entryDy=0;strokeWidth=2;" parent="1" source="9P_XrsOtforrPiIeoxai-8" target="9P_XrsOtforrPiIeoxai-9" edge="1">
          <mxGeometry relative="1" as="geometry">
            <Array as="points">
              <mxPoint x="270" y="520" />
              <mxPoint x="425" y="520" />
              <mxPoint x="425" y="330" />
            </Array>
          </mxGeometry>
        </mxCell>
        <mxCell id="5nxcJv1Y6dDGP2s7I4XA-1" value="&lt;font style=&quot;font-size: 22px;&quot;&gt;T1&lt;/font&gt;" style="text;html=1;align=center;verticalAlign=middle;whiteSpace=wrap;rounded=0;" vertex="1" parent="1">
          <mxGeometry x="235" y="220" width="60" height="30" as="geometry" />
        </mxCell>
        <mxCell id="5nxcJv1Y6dDGP2s7I4XA-3" value="&lt;font style=&quot;font-size: 22px;&quot;&gt;T2&lt;/font&gt;" style="text;html=1;align=center;verticalAlign=middle;whiteSpace=wrap;rounded=0;" vertex="1" parent="1">
          <mxGeometry x="625" y="220" width="60" height="30" as="geometry" />
        </mxCell>
        <mxCell id="5nxcJv1Y6dDGP2s7I4XA-4" value="&lt;font style=&quot;font-size: 22px;&quot;&gt;T3&lt;/font&gt;" style="text;html=1;align=center;verticalAlign=middle;whiteSpace=wrap;rounded=0;" vertex="1" parent="1">
          <mxGeometry x="625" y="580" width="60" height="30" as="geometry" />
        </mxCell>
        <mxCell id="5nxcJv1Y6dDGP2s7I4XA-5" value="&lt;font style=&quot;font-size: 22px;&quot;&gt;T4&lt;/font&gt;" style="text;html=1;align=center;verticalAlign=middle;whiteSpace=wrap;rounded=0;" vertex="1" parent="1">
          <mxGeometry x="235" y="580" width="60" height="30" as="geometry" />
        </mxCell>
      </root>
    </mxGraphModel>
  </diagram>
</mxfile>
